<?xml version="1.0" standalone="no"?>
<svg viewBox="0 0 200 200" xmlns="http://www.w3.org/2000/svg">
  <path fill="#FF0066" d="M46.7,-80C60.9,-72.7,72.9,-60.9,77.8,-46.8C82.6,-32.7,80.4,-16.3,78.4,-1.1C76.5,14.1,74.9,28.2,70.1,42.5C65.4,56.8,57.4,71.2,45.2,76.8C33,82.3,16.5,79,1.2,76.9C-14.1,74.8,-28.2,74.1,-40.2,68.4C-52.2,62.7,-62.1,52.1,-69.5,39.9C-77,27.7,-82,13.8,-83.9,-1.1C-85.9,-16.1,-84.8,-32.2,-76.6,-43.2C-68.5,-54.3,-53.4,-60.2,-39.4,-67.6C-25.5,-74.9,-12.7,-83.7,1.8,-86.8C16.3,-89.8,32.6,-87.2,46.7,-80Z" transform="translate(100 100)" />
</svg>
