<?xml version="1.0" standalone="no"?>
<svg viewBox="0 0 200 200" xmlns="http://www.w3.org/2000/svg">
  <path fill="#52C4EB" d="M45.2,-79.4C57.9,-71,67.1,-57.5,74.7,-43.5C82.3,-29.4,88.2,-14.7,89.2,0.6C90.3,15.9,86.4,31.8,78.8,45.7C71.1,59.7,59.7,71.7,46,79.3C32.2,86.9,16.1,90.2,0.5,89.3C-15.1,88.5,-30.3,83.6,-44.7,76.3C-59.1,69,-72.7,59.5,-80.5,46.4C-88.3,33.3,-90.2,16.6,-89.9,0.2C-89.6,-16.3,-87,-32.5,-79.9,-46.7C-72.7,-61,-61,-73.2,-46.9,-80.8C-32.9,-88.4,-16.4,-91.5,-0.1,-91.3C16.2,-91.2,32.5,-87.8,45.2,-79.4Z" transform="translate(100 100)" />
</svg>
