<?xml version="1.0" standalone="no"?>
<svg viewBox="0 0 200 200" xmlns="http://www.w3.org/2000/svg">
  <path fill="#52C4EB" d="M42.6,-74.3C54.1,-67.1,61.5,-53.5,66.5,-40C71.4,-26.5,73.9,-13.3,75.8,1.1C77.7,15.5,79.1,30.9,74.6,45.2C70.1,59.5,59.7,72.5,46.3,81C32.9,89.6,16.5,93.6,1.7,90.6C-13.1,87.7,-26.1,77.8,-37,67.8C-47.9,57.8,-56.6,47.7,-65.2,36.4C-73.9,25.1,-82.5,12.6,-84.2,-1C-85.9,-14.5,-80.7,-29.1,-73,-42C-65.3,-55,-55.1,-66.5,-42.6,-73C-30,-79.5,-15,-81.1,0.3,-81.6C15.5,-82.1,31.1,-81.4,42.6,-74.3Z" transform="translate(100 100)" />
</svg>
