<?xml version="1.0" standalone="no"?>
<svg viewBox="0 0 200 200" xmlns="http://www.w3.org/2000/svg">
  <path fill="#FF2B66" d="M40.9,-70.3C54.7,-62.9,68.7,-55.3,76,-43.6C83.2,-31.9,83.5,-15.9,82.3,-0.7C81,14.5,78.1,29,71.6,41.8C65,54.6,54.7,65.8,42.2,72.2C29.6,78.5,14.8,80,0.8,78.6C-13.3,77.3,-26.5,73.1,-37.5,65.9C-48.5,58.6,-57.3,48.4,-67.1,36.9C-76.8,25.4,-87.6,12.7,-90.5,-1.7C-93.4,-16.1,-88.6,-32.2,-79.2,-44.3C-69.8,-56.4,-55.8,-64.5,-41.9,-71.9C-28,-79.3,-14,-86,-0.2,-85.6C13.5,-85.2,27.1,-77.8,40.9,-70.3Z" transform="translate(100 100)" />
</svg>
